<svg width="30" height="30" viewBox="0 0 30 30" fill="none" xmlns="http://www.w3.org/2000/svg">
<path d="M16.5101 22C15.9999 22 15.6379 21.8079 15.424 21.4236C15.2093 21.04 15.2448 20.6696 15.5305 20.3125L20.2755 14.5L15.5305 8.6875C15.2448 8.33036 15.2093 7.95964 15.424 7.57536C15.6379 7.19179 15.9999 7 16.5101 7C16.7346 7 16.9387 7.04893 17.1224 7.14679C17.306 7.24536 17.4591 7.36607 17.5816 7.50893L22.7551 13.8839C22.8367 13.9732 22.898 14.0714 22.9388 14.1786C22.9796 14.2857 23 14.3929 23 14.5C23 14.6071 22.9796 14.7096 22.9388 14.8075C22.898 14.9061 22.8367 15.0089 22.7551 15.1161L17.5816 21.4911C17.4591 21.6339 17.306 21.7546 17.1224 21.8532C16.9387 21.9511 16.7346 22 16.5101 22ZM9.22431 22C8.7141 22 8.35205 21.8079 8.13817 21.4236C7.92347 21.04 7.95898 20.6696 8.2447 20.3125L12.9897 14.5L8.2447 8.6875C7.95898 8.33036 7.92347 7.95964 8.13817 7.57536C8.35205 7.19179 8.7141 7 9.22431 7C9.4488 7 9.65288 7.04893 9.83656 7.14679C10.0202 7.24536 10.1733 7.36607 10.2957 7.50893L15.4693 13.8839C15.5509 13.9732 15.6121 14.0714 15.653 14.1786C15.6938 14.2857 15.7142 14.3929 15.7142 14.5C15.7142 14.6071 15.6938 14.7143 15.653 14.8214C15.6121 14.9286 15.5509 15.0268 15.4693 15.1161L10.2957 21.4911C10.1733 21.6339 10.0202 21.7546 9.83656 21.8532C9.65288 21.9511 9.4488 22 9.22431 22Z" fill="white"/>
</svg>
