<svg width="30" height="30" viewBox="0 0 30 30" fill="none" xmlns="http://www.w3.org/2000/svg">
<path d="M8.75 23.75H21.25C21.1667 22.7292 20.8542 21.7917 20.3125 20.9375C19.7708 20.0833 19.0625 19.4062 18.1875 18.9062L19.375 16.7812C19.4167 16.6979 19.4271 16.6042 19.4062 16.5C19.3854 16.3958 19.3229 16.3229 19.2188 16.2812C19.1354 16.2396 19.0471 16.2292 18.9538 16.25C18.8596 16.2708 18.7917 16.3229 18.75 16.4062L17.5312 18.5938C17.1146 18.4271 16.6979 18.2967 16.2812 18.2025C15.8646 18.1092 15.4375 18.0625 15 18.0625C14.5625 18.0625 14.1354 18.1092 13.7188 18.2025C13.3021 18.2967 12.8854 18.4271 12.4688 18.5938L11.25 16.4062C11.2083 16.3021 11.1408 16.25 11.0475 16.25C10.9533 16.25 10.8542 16.2708 10.75 16.3125L10.625 16.7812L11.8125 18.9062C10.9375 19.4062 10.2292 20.0833 9.6875 20.9375C9.14583 21.7917 8.83333 22.7292 8.75 23.75ZM12.1875 21.875C12.0208 21.875 11.875 21.8125 11.75 21.6875C11.625 21.5625 11.5625 21.4167 11.5625 21.25C11.5625 21.0833 11.625 20.9375 11.75 20.8125C11.875 20.6875 12.0208 20.625 12.1875 20.625C12.3542 20.625 12.5 20.6875 12.625 20.8125C12.75 20.9375 12.8125 21.0833 12.8125 21.25C12.8125 21.4167 12.75 21.5625 12.625 21.6875C12.5 21.8125 12.3542 21.875 12.1875 21.875ZM17.8125 21.875C17.6458 21.875 17.5 21.8125 17.375 21.6875C17.25 21.5625 17.1875 21.4167 17.1875 21.25C17.1875 21.0833 17.25 20.9375 17.375 20.8125C17.5 20.6875 17.6458 20.625 17.8125 20.625C17.9792 20.625 18.125 20.6875 18.25 20.8125C18.375 20.9375 18.4375 21.0833 18.4375 21.25C18.4375 21.4167 18.375 21.5625 18.25 21.6875C18.125 21.8125 17.9792 21.875 17.8125 21.875ZM7.5 27.5C6.8125 27.5 6.22417 27.2554 5.735 26.7663C5.245 26.2763 5 25.6875 5 25V5C5 4.3125 5.245 3.72375 5.735 3.23375C6.22417 2.74458 6.8125 2.5 7.5 2.5H16.4688C16.8021 2.5 17.12 2.5625 17.4255 2.6875C17.7242 2.8125 17.9896 2.98958 18.2188 3.21875L24.2812 9.28125C24.5104 9.51042 24.6875 9.77583 24.8125 10.0775C24.9375 10.38 25 10.6979 25 11.0312V25C25 25.6875 24.7554 26.2763 24.2663 26.7663C23.7763 27.2554 23.1875 27.5 22.5 27.5H7.5ZM16.25 10C16.25 10.3542 16.37 10.6508 16.61 10.89C16.8492 11.13 17.1458 11.25 17.5 11.25H22.5L16.25 5V10Z" fill="#12B553"/>
</svg>
