<svg width="56" height="63" viewBox="0 0 56 63" fill="none" xmlns="http://www.w3.org/2000/svg">
<mask id="path-1-outside-1_1_218" maskUnits="userSpaceOnUse" x="0" y="0" width="56" height="63" fill="black">
<rect fill="white" width="56" height="63"/>
<path d="M23.5 16.0565C23.5 11.5617 23.5 9.31436 25.4499 6.6685C26.6847 4.9929 30.3464 2.88577 32.4156 2.66006C35.683 2.30365 36.7304 2.91237 38.8252 4.12981C43.4797 6.83477 47.3352 10.7235 50.0003 15.4009C52.6654 20.0782 54.0449 25.3777 53.9989 30.7609C53.9528 36.144 52.4828 41.4191 49.7382 46.0502C46.9935 50.6813 43.072 54.5035 38.3719 57.1285C33.6719 59.7534 28.3609 61.0876 22.9783 60.9955C17.5957 60.9035 12.3334 59.3884 7.72595 56.6042C5.65223 55.3511 4.61537 54.7246 3.35929 51.6873C2.56383 49.7638 2.65415 45.5401 3.53112 43.6524C4.91589 40.6717 6.88731 39.5926 10.8302 37.4346L13.5441 35.9492C18.1762 33.4139 20.4923 32.1462 21.8621 30.0575C22.0283 29.8041 22.1829 29.5432 22.3255 29.2757C23.5 27.0713 23.5 24.431 23.5 19.1504V16.0565Z"/>
</mask>
<path d="M23.5 16.0565C23.5 11.5617 23.5 9.31436 25.4499 6.6685C26.6847 4.9929 30.3464 2.88577 32.4156 2.66006C35.683 2.30365 36.7304 2.91237 38.8252 4.12981C43.4797 6.83477 47.3352 10.7235 50.0003 15.4009C52.6654 20.0782 54.0449 25.3777 53.9989 30.7609C53.9528 36.144 52.4828 41.4191 49.7382 46.0502C46.9935 50.6813 43.072 54.5035 38.3719 57.1285C33.6719 59.7534 28.3609 61.0876 22.9783 60.9955C17.5957 60.9035 12.3334 59.3884 7.72595 56.6042C5.65223 55.3511 4.61537 54.7246 3.35929 51.6873C2.56383 49.7638 2.65415 45.5401 3.53112 43.6524C4.91589 40.6717 6.88731 39.5926 10.8302 37.4346L13.5441 35.9492C18.1762 33.4139 20.4923 32.1462 21.8621 30.0575C22.0283 29.8041 22.1829 29.5432 22.3255 29.2757C23.5 27.0713 23.5 24.431 23.5 19.1504V16.0565Z" stroke="url(#paint0_linear_1_218)" stroke-width="4" mask="url(#path-1-outside-1_1_218)"/>
<defs>
<linearGradient id="paint0_linear_1_218" x1="10.2833" y1="14.2333" x2="38.75" y2="55.4083" gradientUnits="userSpaceOnUse">
<stop offset="0.0208333" stop-color="#01AA85"/>
<stop offset="1" stop-color="#00785E"/>
</linearGradient>
</defs>
</svg>
