<svg width="35" height="54" viewBox="0 0 35 54" fill="none" xmlns="http://www.w3.org/2000/svg">
<mask id="path-1-outside-1_1_181" maskUnits="userSpaceOnUse" x="0" y="0" width="35" height="54" fill="black">
<rect fill="white" width="35" height="54"/>
<path d="M2.5 20C2.5 10.7373 2.5 6.10589 8.08273 3.35713C13.6655 0.60838 16.1428 2.51421 21.0974 6.32588C21.1664 6.37901 21.2353 6.43245 21.3039 6.48621C26.671 10.6888 30.4754 16.5683 32.1101 23.1861C33.7447 29.8039 33.1153 36.7785 30.3223 42.9967C30.2866 43.0763 30.2505 43.1556 30.2142 43.2348C27.6041 48.915 26.2991 51.7551 20.0786 51.9218C13.8581 52.0886 11.7017 47.9899 7.38888 39.7924L4.80017 34.872C3.65576 32.6968 3.08356 31.6092 2.79178 30.4279C2.5 29.2467 2.5 28.0177 2.5 25.5598V20Z"/>
</mask>
<path d="M2.5 20C2.5 10.7373 2.5 6.10589 8.08273 3.35713C13.6655 0.60838 16.1428 2.51421 21.0974 6.32588C21.1664 6.37901 21.2353 6.43245 21.3039 6.48621C26.671 10.6888 30.4754 16.5683 32.1101 23.1861C33.7447 29.8039 33.1153 36.7785 30.3223 42.9967C30.2866 43.0763 30.2505 43.1556 30.2142 43.2348C27.6041 48.915 26.2991 51.7551 20.0786 51.9218C13.8581 52.0886 11.7017 47.9899 7.38888 39.7924L4.80017 34.872C3.65576 32.6968 3.08356 31.6092 2.79178 30.4279C2.5 29.2467 2.5 28.0177 2.5 25.5598V20Z" stroke="url(#paint0_linear_1_181)" stroke-width="4" mask="url(#path-1-outside-1_1_181)"/>
<defs>
<linearGradient id="paint0_linear_1_181" x1="-10.7167" y1="14.2333" x2="17.75" y2="55.4083" gradientUnits="userSpaceOnUse">
<stop offset="0.0208333" stop-color="#01AA85"/>
<stop offset="1" stop-color="#00785E"/>
</linearGradient>
</defs>
</svg>
