<svg width="16" height="16" viewBox="0 0 16 16" fill="none" xmlns="http://www.w3.org/2000/svg">
<path d="M6.00016 14.6668H10.0002C13.3335 14.6668 14.6668 13.3335 14.6668 10.0002V6.00016C14.6668 2.66683 13.3335 1.3335 10.0002 1.3335H6.00016C2.66683 1.3335 1.3335 2.66683 1.3335 6.00016V10.0002C1.3335 13.3335 2.66683 14.6668 6.00016 14.6668Z" fill="#7F8384"/>
<path d="M5.9448 10C5.66902 10 5.41293 9.95 5.17655 9.85C4.94375 9.7463 4.73781 9.6037 4.55873 9.42222C4.38323 9.24074 4.24534 9.02963 4.14505 8.78889C4.04835 8.54444 4 8.28148 4 8C4 7.71481 4.04835 7.45185 4.14505 7.21111C4.24534 6.96667 4.38323 6.7537 4.55873 6.57222C4.73781 6.39074 4.94375 6.25 5.17655 6.15C5.41293 6.05 5.66902 6 5.9448 6C6.12746 6 6.30295 6.02222 6.47129 6.06667C6.6432 6.10741 6.799 6.17222 6.93868 6.26111C6.9745 6.27963 6.99957 6.30556 7.0139 6.33889C7.03181 6.37222 7.04076 6.40741 7.04076 6.44444C7.04076 6.50741 7.01927 6.56111 6.97629 6.60556C6.93689 6.65 6.89033 6.67222 6.83661 6.67222C6.81512 6.67222 6.79363 6.66852 6.77214 6.66111C6.75423 6.6537 6.73453 6.6463 6.71305 6.63889C6.60202 6.57963 6.48203 6.53333 6.3531 6.5C6.22416 6.46296 6.08806 6.44444 5.9448 6.44444C5.66185 6.44444 5.40756 6.51296 5.18192 6.65C4.95986 6.78704 4.78437 6.97222 4.65543 7.20556C4.52649 7.43889 4.46202 7.7037 4.46202 8C4.46202 8.29259 4.52649 8.55741 4.65543 8.79444C4.78437 9.02778 4.95986 9.21296 5.18192 9.35C5.40756 9.48704 5.66185 9.55556 5.9448 9.55556C6.08806 9.55556 6.2349 9.53519 6.38533 9.49444C6.53934 9.4537 6.67007 9.40185 6.77751 9.33889L6.73991 9.47222V8.3L6.82587 8.37778H6.00389C5.94301 8.37778 5.89107 8.35741 5.84809 8.31667C5.8087 8.27222 5.789 8.21852 5.789 8.15556C5.789 8.09259 5.8087 8.04074 5.84809 8C5.89107 7.95556 5.94301 7.93333 6.00389 7.93333H6.98166C7.04613 7.93333 7.09806 7.95556 7.13746 8C7.17686 8.04444 7.19656 8.09815 7.19656 8.16111V9.44444C7.19656 9.48889 7.18581 9.52778 7.16432 9.56111C7.14642 9.59444 7.12135 9.62222 7.08911 9.64444C6.92794 9.75185 6.74886 9.83889 6.55187 9.90556C6.35847 9.96852 6.15611 10 5.9448 10Z" fill="white"/>
<path d="M8.57356 9.71667C8.57356 9.77963 8.55028 9.83333 8.50372 9.87778C8.46074 9.92222 8.40881 9.94444 8.34792 9.94444C8.27987 9.94444 8.22615 9.92222 8.18675 9.87778C8.14736 9.83333 8.12766 9.77963 8.12766 9.71667V6.28333C8.12766 6.21667 8.14915 6.16296 8.19212 6.12222C8.2351 6.07778 8.28883 6.05556 8.3533 6.05556C8.41418 6.05556 8.46612 6.07778 8.50909 6.12222C8.55207 6.16296 8.57356 6.21667 8.57356 6.28333V9.71667Z" fill="white"/>
<path d="M9.89941 9.94444C9.83494 9.94444 9.78121 9.92222 9.73823 9.87778C9.69884 9.83333 9.67914 9.77963 9.67914 9.71667V6.27778C9.67914 6.21481 9.69884 6.16296 9.73823 6.12222C9.78121 6.07778 9.83315 6.05556 9.89403 6.05556H11.7797C11.8406 6.05556 11.8926 6.07593 11.9355 6.11667C11.9785 6.15741 12 6.20926 12 6.27222C12 6.33148 11.9785 6.38148 11.9355 6.42222C11.8926 6.46296 11.8406 6.48333 11.7797 6.48333H10.0874L10.1197 6.43889V7.8L10.0928 7.73889H11.538C11.5989 7.73889 11.6508 7.76111 11.6938 7.80556C11.7368 7.8463 11.7582 7.89815 11.7582 7.96111C11.7582 8.01667 11.7368 8.06667 11.6938 8.11111C11.6508 8.15185 11.5989 8.17222 11.538 8.17222H10.0821L10.1197 8.12222V9.71667C10.1197 9.77963 10.0982 9.83333 10.0552 9.87778C10.0122 9.92222 9.96029 9.94444 9.89941 9.94444Z" fill="white"/>
<path d="M5.9448 10C5.66902 10 5.41293 9.95 5.17655 9.85C4.94375 9.7463 4.73781 9.6037 4.55873 9.42222C4.38323 9.24074 4.24534 9.02963 4.14505 8.78889C4.04835 8.54444 4 8.28148 4 8C4 7.71481 4.04835 7.45185 4.14505 7.21111C4.24534 6.96667 4.38323 6.7537 4.55873 6.57222C4.73781 6.39074 4.94375 6.25 5.17655 6.15C5.41293 6.05 5.66902 6 5.9448 6C6.12746 6 6.30295 6.02222 6.47129 6.06667C6.6432 6.10741 6.799 6.17222 6.93868 6.26111C6.9745 6.27963 6.99957 6.30556 7.0139 6.33889C7.03181 6.37222 7.04076 6.40741 7.04076 6.44444C7.04076 6.50741 7.01927 6.56111 6.97629 6.60556C6.93689 6.65 6.89033 6.67222 6.83661 6.67222C6.81512 6.67222 6.79363 6.66852 6.77214 6.66111C6.75423 6.6537 6.73453 6.6463 6.71305 6.63889C6.60202 6.57963 6.48203 6.53333 6.3531 6.5C6.22416 6.46296 6.08806 6.44444 5.9448 6.44444C5.66185 6.44444 5.40756 6.51296 5.18192 6.65C4.95986 6.78704 4.78437 6.97222 4.65543 7.20556C4.52649 7.43889 4.46202 7.7037 4.46202 8C4.46202 8.29259 4.52649 8.55741 4.65543 8.79444C4.78437 9.02778 4.95986 9.21296 5.18192 9.35C5.40756 9.48704 5.66185 9.55556 5.9448 9.55556C6.08806 9.55556 6.2349 9.53519 6.38533 9.49444C6.53934 9.4537 6.67007 9.40185 6.77751 9.33889L6.73991 9.47222V8.3L6.82587 8.37778H6.00389C5.94301 8.37778 5.89107 8.35741 5.84809 8.31667C5.8087 8.27222 5.789 8.21852 5.789 8.15556C5.789 8.09259 5.8087 8.04074 5.84809 8C5.89107 7.95556 5.94301 7.93333 6.00389 7.93333H6.98166C7.04613 7.93333 7.09806 7.95556 7.13746 8C7.17686 8.04444 7.19656 8.09815 7.19656 8.16111V9.44444C7.19656 9.48889 7.18581 9.52778 7.16432 9.56111C7.14642 9.59444 7.12135 9.62222 7.08911 9.64444C6.92794 9.75185 6.74886 9.83889 6.55187 9.90556C6.35847 9.96852 6.15611 10 5.9448 10Z" stroke="white" stroke-width="0.4"/>
<path d="M8.57356 9.71667C8.57356 9.77963 8.55028 9.83333 8.50372 9.87778C8.46074 9.92222 8.40881 9.94444 8.34792 9.94444C8.27987 9.94444 8.22615 9.92222 8.18675 9.87778C8.14736 9.83333 8.12766 9.77963 8.12766 9.71667V6.28333C8.12766 6.21667 8.14915 6.16296 8.19212 6.12222C8.2351 6.07778 8.28883 6.05556 8.3533 6.05556C8.41418 6.05556 8.46612 6.07778 8.50909 6.12222C8.55207 6.16296 8.57356 6.21667 8.57356 6.28333V9.71667Z" stroke="white" stroke-width="0.4"/>
<path d="M9.89941 9.94444C9.83494 9.94444 9.78121 9.92222 9.73823 9.87778C9.69884 9.83333 9.67914 9.77963 9.67914 9.71667V6.27778C9.67914 6.21481 9.69884 6.16296 9.73823 6.12222C9.78121 6.07778 9.83315 6.05556 9.89403 6.05556H11.7797C11.8406 6.05556 11.8926 6.07593 11.9355 6.11667C11.9785 6.15741 12 6.20926 12 6.27222C12 6.33148 11.9785 6.38148 11.9355 6.42222C11.8926 6.46296 11.8406 6.48333 11.7797 6.48333H10.0874L10.1197 6.43889V7.8L10.0928 7.73889H11.538C11.5989 7.73889 11.6508 7.76111 11.6938 7.80556C11.7368 7.8463 11.7582 7.89815 11.7582 7.96111C11.7582 8.01667 11.7368 8.06667 11.6938 8.11111C11.6508 8.15185 11.5989 8.17222 11.538 8.17222H10.0821L10.1197 8.12222V9.71667C10.1197 9.77963 10.0982 9.83333 10.0552 9.87778C10.0122 9.92222 9.96029 9.94444 9.89941 9.94444Z" stroke="white" stroke-width="0.4"/>
</svg>
