<svg width="16" height="16" viewBox="0 0 16 16" fill="none" xmlns="http://www.w3.org/2000/svg">
<path d="M1.83321 12.4334C1.55988 12.4334 1.33321 12.2067 1.33321 11.9334V8.13337C1.29988 6.3267 1.97321 4.62003 3.22655 3.34003C4.47988 2.0667 6.15988 1.3667 7.96655 1.3667C11.6599 1.3667 14.6665 4.37337 14.6665 8.0667V11.8667C14.6665 12.14 14.4399 12.3667 14.1665 12.3667C13.8932 12.3667 13.6665 12.14 13.6665 11.8667V8.0667C13.6665 4.9267 11.1132 2.3667 7.96655 2.3667C6.42655 2.3667 4.99988 2.96003 3.93988 4.04003C2.87321 5.1267 2.30655 6.57337 2.33321 8.12003V11.9267C2.33321 12.2067 2.11321 12.4334 1.83321 12.4334Z" fill="#7F8384"/>
<path d="M3.96016 8.2998H3.8735C2.4735 8.2998 1.3335 9.43981 1.3335 10.8398V12.0931C1.3335 13.4931 2.4735 14.6331 3.8735 14.6331H3.96016C5.36016 14.6331 6.50016 13.4931 6.50016 12.0931V10.8398C6.50016 9.43981 5.36016 8.2998 3.96016 8.2998Z" fill="#7F8384"/>
<path d="M12.1267 8.2998H12.04C10.64 8.2998 9.5 9.43981 9.5 10.8398V12.0931C9.5 13.4931 10.64 14.6331 12.04 14.6331H12.1267C13.5267 14.6331 14.6667 13.4931 14.6667 12.0931V10.8398C14.6667 9.43981 13.5267 8.2998 12.1267 8.2998Z" fill="#7F8384"/>
</svg>
