<svg width="30" height="30" viewBox="0 0 30 30" fill="none" xmlns="http://www.w3.org/2000/svg">
<path d="M7.5 0H17.4244C17.9216 0.000106195 18.3985 0.19772 18.75 0.549375L25.7006 7.5C26.0523 7.85155 26.2499 8.32838 26.25 8.82563V19.2994L21.1313 14.1806C20.9386 13.9885 20.7064 13.8405 20.4508 13.7471C20.1952 13.6537 19.9223 13.6171 19.6511 13.6398C19.3799 13.6624 19.1169 13.7438 18.8804 13.8784C18.6438 14.0129 18.4394 14.1973 18.2812 14.4188L14.7394 19.3763L11.4255 17.385C11.0639 17.1696 10.6436 17.0803 10.2285 17.1312C9.81328 17.1822 9.42707 17.3705 9.13125 17.6663L3.75 23.0475V3.75C3.75 2.75544 4.14509 1.80161 4.84835 1.09835C5.55161 0.395088 6.50544 0 7.5 0V0ZM17.8125 2.8125V6.5625C17.8125 7.05978 18.01 7.53669 18.3617 7.88833C18.7133 8.23996 19.1902 8.4375 19.6875 8.4375H23.4375L17.8125 2.8125ZM15.0037 10.3125C15.0037 9.56658 14.7074 8.85121 14.18 8.32376C13.6525 7.79632 12.9372 7.5 12.1912 7.5C11.4453 7.5 10.73 7.79632 10.2025 8.32376C9.67507 8.85121 9.37875 9.56658 9.37875 10.3125C9.37875 11.0584 9.67507 11.7738 10.2025 12.3012C10.73 12.8287 11.4453 13.125 12.1912 13.125C12.9372 13.125 13.6525 12.8287 14.18 12.3012C14.7074 11.7738 15.0037 11.0584 15.0037 10.3125Z" fill="#6FBAFF"/>
<path d="M19.8075 15.5063L26.25 21.9526V26.2501C26.25 27.2447 25.8549 28.1985 25.1516 28.9017C24.4484 29.605 23.4946 30.0001 22.5 30.0001H7.5C6.50544 30.0001 5.55161 29.605 4.84835 28.9017C4.14509 28.1985 3.75 27.2447 3.75 26.2501V25.7007L10.4588 18.9938L15.2587 21.8738L19.8075 15.5082V15.5063Z" fill="#6FBAFF"/>
</svg>
