<svg width="281" height="280" viewBox="0 0 281 280" fill="none" xmlns="http://www.w3.org/2000/svg">
<path d="M151.766 66.2909C146.513 66.2909 141.354 66.6397 136.316 67.3131C118.048 69.7534 99.5574 67.5228 82.2302 60.9682C76.3451 58.7416 69.9218 57.3967 63.1687 57.1309C33.375 55.9591 8.46709 76.2276 7.53567 102.402C6.99027 117.724 14.7839 131.667 27.3163 140.832C39.5286 149.763 48.4678 162.784 52.6827 177.782C63.9682 217.94 105.95 245.585 151.765 245.585C208.122 245.585 253.809 205.449 253.809 155.938C253.809 106.428 208.123 66.2909 151.766 66.2909Z" fill="white"/>
<path d="M17.935 159.07L10.8672 152.002L3.79942 159.07L10.8672 166.138L17.935 159.07Z" fill="#FFCB12"/>
<path d="M280.198 120.753L272.119 114.866L266.232 122.945L274.311 128.832L280.198 120.753Z" fill="white"/>
<path d="M19.82 250.878C21.415 250.878 22.7089 252.171 22.7089 253.766C22.7089 255.361 21.4156 256.655 19.82 256.655C18.2249 256.655 16.9316 255.362 16.9316 253.766C16.9316 252.171 18.2249 250.878 19.82 250.878Z" fill="white"/>
<path d="M114.707 4.19922C116.302 4.19922 117.596 5.49249 117.596 7.08819C117.596 8.68323 116.302 9.9765 114.707 9.9765C113.112 9.9765 111.818 8.68323 111.818 7.08819C111.818 5.49249 113.112 4.19922 114.707 4.19922Z" fill="#FFCB12"/>
<path d="M190.11 253.766C191.705 253.766 192.998 255.059 192.998 256.654C192.998 258.25 191.705 259.542 190.11 259.542C188.514 259.542 187.221 258.249 187.221 256.654C187.221 255.059 188.515 253.766 190.11 253.766Z" fill="#FFCB12"/>
<path d="M22.7711 27.1812C24.3662 27.1812 25.6594 28.4744 25.6594 30.0701C25.6594 31.6652 24.3662 32.9591 22.7711 32.9591C21.1761 32.9591 19.8828 31.6658 19.8828 30.0701C19.8828 28.4744 21.1761 27.1812 22.7711 27.1812Z" fill="white"/>
<path d="M207.509 162.285C209.104 162.285 210.397 163.578 210.397 165.173C210.397 166.769 209.104 168.062 207.509 168.062C205.913 168.062 204.62 166.769 204.62 165.173C204.62 163.578 205.913 162.285 207.509 162.285Z" fill="white"/>
<path d="M261.867 25.9382C259.568 37.7403 248.137 45.4438 236.335 43.1446C224.533 40.8455 216.829 29.4144 219.128 17.6122C221.428 5.81013 232.859 -1.89335 244.661 0.405806C256.463 2.70496 264.166 14.1361 261.867 25.9382Z" fill="#01AA85"/>
<path d="M250.077 17.4474C248.295 14.5141 244.448 13.6937 241.634 15.5898C239.738 12.776 235.864 12.0928 233.112 14.1424C230.534 16.0621 230.031 19.7368 231.827 22.4024L237.099 30.2247C237.82 31.2959 239.274 31.5794 240.345 30.857L248.167 25.5853C250.833 23.7897 251.746 20.1953 250.077 17.4474Z" fill="white"/>
<path d="M226.707 32.292L224.418 43.6075C224.285 44.2672 224.983 44.7812 255.573 44.4586L242.114 35.4083L226.707 32.292Z" fill="#01AA85"/>
<path d="M242.463 218.781C230.563 217.066 222.307 206.026 224.023 194.126C255.739 182.255 236.778 173.969 248.678 175.685C260.579 177.401 268.836 188.44 267.119 200.34C265.403 212.241 254.365 220.498 242.463 218.781Z" fill="#01AA85"/>
<path d="M252.873 204.811L252.893 204.816L256.634 189.108L256.654 189.057L256.647 189.056V189.055L256.63 189.054L240.859 187.46H240.858L237.901 199.871C237.343 199.533 236.68 199.293 235.954 199.193C233.657 198.877 231.594 200.074 231.347 201.868C231.098 203.663 232.76 205.374 235.057 205.692C237.355 206.008 239.419 204.811 239.666 203.015C239.669 202.985 239.669 202.955 239.672 202.924L239.691 202.929L242.256 192.163L253.156 193.134L251.102 201.755C250.544 201.417 249.881 201.177 249.154 201.077C246.857 200.761 244.795 201.959 244.547 203.752C244.3 205.548 245.96 207.26 248.258 207.576C250.555 207.894 252.619 206.695 252.866 204.901C252.871 204.871 252.871 204.841 252.873 204.811Z" fill="white"/>
<path d="M234.389 183.975L222.975 182.246C222.31 182.145 221.83 182.868 222.182 183.442L232.035 199.518L234.389 183.975Z" fill="#01AA85"/>
<path d="M0.142906 79.2374C1.50868 91.1832 12.2997 99.7606 24.2462 98.3948C36.192 97.0291 44.7694 86.2374 43.4036 74.2916C42.0378 62.3451 31.2462 53.7683 19.3004 55.1341C7.35455 56.4999 -1.22287 67.2916 0.142906 79.2374Z" fill="#01AA85"/>
<path d="M34.6963 88.3315L36.0896 99.7914C36.1705 100.46 35.4338 100.917 34.8707 100.549L19.0908 90.2284L34.6963 88.3315Z" fill="#01AA85"/>
<path d="M13.205 76.7074C13.5169 77.9787 12.7393 79.2616 11.4681 79.5736C10.1969 79.8856 8.914 79.1079 8.60205 77.8366C8.29009 76.5653 9.06773 75.2823 10.3389 74.9704C11.6101 74.6593 12.8939 75.437 13.205 76.7074Z" fill="white" stroke="white" stroke-width="1.1615" stroke-miterlimit="10"/>
<path d="M23.871 76.7074C24.1829 77.9787 23.4053 79.2616 22.1341 79.5736C20.8629 79.8856 19.58 79.1079 19.2681 77.8366C18.9561 76.5653 19.7337 75.2823 21.0049 74.9704C22.2761 74.6593 23.5599 75.437 23.871 76.7074Z" fill="white" stroke="white" stroke-width="1.1615" stroke-miterlimit="10"/>
<path d="M34.538 76.7074C34.8499 77.9787 34.0723 79.2616 32.8011 79.5736C31.5299 79.8856 30.247 79.1079 29.9351 77.8366C29.6231 76.5653 30.4007 75.2823 31.6719 74.9704C32.9431 74.6593 34.2269 75.437 34.538 76.7074Z" fill="white" stroke="white" stroke-width="1.1615" stroke-miterlimit="10"/>
<path d="M129.568 166.006C129.568 166.006 146.024 213.891 89.335 242.59" stroke="#FFCB12" stroke-width="16.0414" stroke-miterlimit="10"/>
<path d="M101.179 246.435C101.018 245.359 100.184 244.518 99.113 244.334C98.5996 244.246 97.9915 244.176 97.3077 244.157C97.3077 244.157 91.7198 242.997 92.0706 238.451C92.4213 233.904 94.2325 230.923 93.1927 229.255C92.1529 227.526 83.0398 229.11 79.1025 232.181L99.8537 269.652C99.8537 269.652 102.395 273.883 105.577 275.879L101.179 246.435Z" fill="#01AA85"/>
<path d="M101.74 250.186L105.614 242.722C105.614 242.722 98.9042 238.822 96.8447 245.106L101.74 250.186Z" fill="#01AA85"/>
<path d="M81.2766 240.249L80.5986 239.198C86.0278 235.699 83.9912 230.07 83.9017 229.833L85.0709 229.39C85.097 229.457 87.5686 236.193 81.2766 240.249Z" fill="#099778"/>
<path d="M97.9317 244.086L96.6895 244.227L99.4649 268.83L100.707 268.689L97.9317 244.086Z" fill="#099778"/>
<path d="M98.5654 250.659L101.89 253.475" stroke="#FCFFFF" stroke-width="2.3929" stroke-miterlimit="10" stroke-linecap="round" stroke-linejoin="round"/>
<path d="M99.1885 254.971L102.513 257.788" stroke="#FCFFFF" stroke-width="2.3929" stroke-miterlimit="10" stroke-linecap="round" stroke-linejoin="round"/>
<path d="M99.9844 259.188L103.309 262.005" stroke="#FCFFFF" stroke-width="2.3929" stroke-miterlimit="10" stroke-linecap="round" stroke-linejoin="round"/>
<path d="M98.5134 272.79L97.3115 272.445C98.8693 267.022 103.594 265.786 103.795 265.737L104.097 266.95L103.946 266.343L104.099 266.949C103.927 266.994 99.8667 268.078 98.5134 272.79Z" fill="#099778"/>
<path d="M105.411 278.837C106.019 278.105 106.284 277.129 105.577 275.879C102.394 273.883 99.8533 269.652 99.8533 269.652L79.1021 232.181C78.6782 231.414 77.7135 231.137 76.9473 231.561L74.3947 232.975C73.6286 233.399 73.3516 234.364 73.7762 235.13L94.9533 273.37C95.9036 275.087 97.1988 276.589 98.7567 277.782L100.686 279.258C102.132 280.366 104.249 280.238 105.411 278.837Z" fill="#FCFFFF"/>
<path d="M104.466 147.277C104.466 147.277 112.364 197.291 51.5557 215.719" stroke="#FFCB12" stroke-width="16.0414" stroke-miterlimit="10"/>
<path d="M62.1951 222.477C62.201 221.39 61.506 220.431 60.4753 220.085C59.9815 219.919 59.3911 219.756 58.7183 219.632C58.7183 219.632 53.3747 217.63 54.4178 213.191C55.461 208.752 57.7079 206.084 56.9404 204.246C56.1729 202.407 46.9253 202.577 42.5635 205.008L57.3271 245.216C57.3271 245.216 59.1899 249.786 62.0286 252.247L62.1951 222.477Z" fill="#01AA85"/>
<path d="M62.1727 226.27L67.1447 219.488C67.1447 219.488 61.1113 214.605 58.1133 220.499L62.1727 226.27Z" fill="#01AA85"/>
<path d="M43.4746 213.315L42.9658 212.172C48.8666 209.547 47.7176 203.672 47.6654 203.423L48.8888 203.165C48.9038 203.235 50.314 210.271 43.4746 213.315Z" fill="#099778"/>
<path d="M58.0822 219.608L57.0547 244.345L58.3037 244.397L59.3312 219.66L58.0822 219.608Z" fill="#099778"/>
<path d="M58.9639 226.251L61.8176 229.544" stroke="#FCFFFF" stroke-width="2.3929" stroke-miterlimit="10" stroke-linecap="round" stroke-linejoin="round"/>
<path d="M58.9189 230.608L61.7726 233.901" stroke="#FCFFFF" stroke-width="2.3929" stroke-miterlimit="10" stroke-linecap="round" stroke-linejoin="round"/>
<path d="M59.0586 234.897L61.9123 238.19" stroke="#FCFFFF" stroke-width="2.3929" stroke-miterlimit="10" stroke-linecap="round" stroke-linejoin="round"/>
<path d="M55.5203 248.113L54.3857 247.587C56.7561 242.466 61.615 241.969 61.8208 241.951L61.9331 243.196L61.8769 242.574L61.9351 243.196C61.7587 243.214 57.5797 243.664 55.5203 248.113Z" fill="#099778"/>
<path d="M61.4106 255.146C62.1232 254.516 62.5347 253.591 62.0279 252.248C59.1885 249.787 57.3264 245.217 57.3264 245.217L42.5628 205.009C42.261 204.187 41.3498 203.765 40.5281 204.067L37.7894 205.073C36.9677 205.374 36.5458 206.286 36.8475 207.107L51.9142 248.141C52.5909 249.983 53.6399 251.666 54.9971 253.084L56.6771 254.839C57.9358 256.154 60.0468 256.352 61.4106 255.146Z" fill="#FCFFFF"/>
<path d="M176.782 120.02C176.782 120.02 205.891 143.289 241.486 103.06" stroke="#FFCB12" stroke-width="15" stroke-miterlimit="10"/>
<path d="M237.857 100.537C237.857 100.537 237.294 90.7897 239.48 90.5402C241.667 90.2906 242.143 94.9993 242.143 94.9993C242.143 94.9993 247.273 88.7544 249.595 88.5728C250.041 88.5382 250.313 89.1045 250.179 89.531C249.979 90.1691 249.294 91.3194 247.326 93.3547C247.326 93.3547 251.572 89.4337 252.715 90.4343C253.858 91.4343 248.828 95.7459 248.828 95.7459C248.828 95.7459 253.529 92.4487 254.339 93.7857C255.149 95.1228 250.542 98.209 250.542 98.209C250.542 98.209 254.403 96.3971 254.986 97.6172C255.382 98.4474 248.721 104.251 244.744 106.33L237.857 100.537Z" fill="#FDD9B2"/>
<path d="M116.587 106.697C116.587 106.697 70.3503 99.9232 58.3594 47.5625" stroke="#FFCB12" stroke-width="15" stroke-miterlimit="10"/>
<path d="M62.752 47.0859C62.752 47.0859 67.9133 38.7978 66.1126 37.532C64.3118 36.2661 61.6396 40.1721 61.6396 40.1721C61.6396 40.1721 60.1249 32.2335 58.1733 30.9624C57.7984 30.7181 57.2882 31.0859 57.2014 31.5241C57.0714 32.1799 57.1217 33.5183 57.8761 36.2472C57.8761 36.2472 56.0257 30.7723 54.543 31.1035C53.0609 31.4346 55.413 37.6273 55.413 37.6273C55.413 37.6273 52.8637 32.4823 51.5123 33.2681C50.1609 34.0539 52.7285 38.9696 52.7285 38.9696C52.7285 38.9696 50.2059 35.5307 49.1099 36.323C48.364 36.8618 51.4352 45.1466 53.9316 48.8756L62.752 47.0859Z" fill="#FDD9B2"/>
<path d="M196.141 47.3021L136.149 25.5947L137.98 21.0029L128.016 23.7626C125.336 24.2342 122.975 26.08 121.983 28.822L70.7824 170.324C69.3062 174.403 71.4166 178.907 75.4957 180.383L139.594 203.576C140.8 204.012 142.042 204.128 143.233 203.979V203.98L143.239 203.979C143.95 203.889 144.641 203.702 145.296 203.427L155.097 200.801L150.372 196.877L200.855 57.3603C202.331 53.2813 200.22 48.7783 196.141 47.3021Z" fill="#099778"/>
<path d="M149.949 200.738L85.8501 177.545C81.7711 176.069 79.6607 171.565 81.1369 167.486L132.338 25.9839C133.814 21.9049 138.317 19.7945 142.396 21.2707L206.495 44.464C210.574 45.9402 212.685 50.4438 211.208 54.5229L160.008 196.025C158.532 200.104 154.029 202.214 149.949 200.738Z" fill="#01AA85"/>
<path d="M158.84 183.233L91.0283 158.59L136.028 34.2266L203.84 58.87L158.84 183.233Z" fill="#CCEEE7"/>
<path d="M127.348 182.351C126.351 185.106 123.309 186.532 120.554 185.535C117.799 184.538 116.374 181.496 117.371 178.741C118.367 175.986 121.409 174.561 124.164 175.558C126.919 176.554 128.345 179.596 127.348 182.351Z" stroke="#CCEEE7" stroke-width="1.1855" stroke-miterlimit="10"/>
<path d="M179.652 43.6577L169.34 39.9261C168.648 39.6753 168.289 38.9111 168.54 38.2181C168.791 37.5251 169.556 37.1672 170.248 37.418L180.56 41.1495C181.253 41.4003 181.611 42.1646 181.36 42.8576C181.11 43.5499 180.345 43.9085 179.652 43.6577Z" stroke="#CCEEE7" stroke-width="1.1855" stroke-miterlimit="10"/>
<path d="M162.782 37.5533L162.656 37.5076C161.963 37.2568 161.605 36.4926 161.855 35.7996C162.106 35.1072 162.87 34.7486 163.563 34.9994L163.689 35.0452C164.383 35.296 164.74 36.0602 164.49 36.7532C164.239 37.4456 163.475 37.8042 162.782 37.5533Z" fill="#CCEEE7"/>
<path d="M183.609 51.5176L98.6816 161.371L105.368 163.801L189.5 53.658L183.609 51.5176Z" fill="#01AA85" fill-opacity="0.25"/>
<path d="M116.24 167.752L200.6 57.6919L203.84 58.8696L184.473 112.394L137.17 175.358L116.24 167.752Z" fill="#01AA85" fill-opacity="0.25"/>
<path d="M116.907 114.776L162.557 131.33C163.968 131.842 165.526 131.113 166.038 129.703L174.071 107.549C174.583 106.138 173.854 104.581 172.444 104.068L126.793 87.5145C125.382 87.0031 123.824 87.732 123.312 89.1422L115.279 111.296C114.767 112.707 115.496 114.264 116.907 114.776Z" fill="#01AA85"/>
<path d="M120.876 111.438L117.808 119.245C117.382 120.329 118.481 121.385 119.547 120.917L131.611 115.612L120.876 111.438Z" fill="#01AA85"/>
<path d="M121.059 112.728L166.71 129.282C168.121 129.793 169.678 129.065 170.19 127.654L178.224 105.501C178.735 104.09 178.006 102.532 176.596 102.02L130.945 85.4662C129.535 84.9547 127.977 85.6837 127.465 87.0945L119.431 109.248C118.919 110.658 119.648 112.216 121.059 112.728Z" fill="white"/>
<path d="M125.028 109.389L121.96 117.196C121.534 118.28 122.634 119.336 123.7 118.868L135.764 113.563L125.028 109.389Z" fill="white"/>
<path d="M136.384 98.9174C135.475 100.571 133.397 101.173 131.744 100.264C130.091 99.3544 129.488 97.2767 130.398 95.6242C131.307 93.971 133.385 93.3681 135.038 94.278C136.69 95.1872 137.293 97.2643 136.384 98.9174Z" fill="#EEBA00"/>
<path d="M167.709 116.538L128.194 102.147L127.391 104.352L166.905 118.743L167.709 116.538Z" fill="#01AA85" fill-opacity="0.2"/>
<path d="M170.61 107.899L139.903 96.7158L139.1 98.9209L169.807 110.104L170.61 107.899Z" fill="#01AA85" fill-opacity="0.2"/>
<path d="M143.636 111.59L126.967 105.52L126.164 107.725L142.833 113.795L143.636 111.59Z" fill="#01AA85" fill-opacity="0.2"/>
<path d="M155.255 106.259L138.586 100.188L137.783 102.393L154.452 108.464L155.255 106.259Z" fill="#01AA85" fill-opacity="0.2"/>
</svg>
