<svg width="68" height="68" viewBox="0 0 68 68" fill="none" xmlns="http://www.w3.org/2000/svg">
<g clip-path="url(#clip0_1_9260)">
<path d="M55.3841 6.40332C53.9868 6.40332 52.6529 6.88958 51.406 7.76277L51.3979 7.75158C34.6662 19.9061 19.1638 20.8255 11.7134 21.2629L11.115 21.2988C6.93482 21.5505 3.13261 24.2736 1.19269 28.4039C-0.380048 31.7524 -0.398559 35.7944 1.14421 39.2174C3.14919 43.6652 6.98731 46.3643 11.2086 46.3696C11.7821 46.3652 12.4648 46.3769 13.1955 46.3996C12.3736 52.0624 15.7268 57.8636 21.5373 60.381C23.4036 61.1899 25.3715 61.5971 27.3213 61.5971C28.8423 61.5971 30.3524 61.3494 31.795 60.8519C35.131 59.7016 37.7098 57.3565 39.0562 54.2497C39.2456 53.8128 39.3977 53.3622 39.5323 52.9068C43.3834 54.7143 47.3785 56.9943 51.398 59.9142L51.4062 59.903C52.653 60.7761 53.9869 61.2623 55.3842 61.2623C62.4587 61.2623 68.0003 49.2142 68.0003 33.8332C68.0003 18.4523 62.4586 6.40332 55.3841 6.40332ZM36.5604 53.1675C35.521 55.5658 33.5139 57.3815 30.9079 58.2801C28.2579 59.192 25.3145 59.0525 22.6187 57.8849C17.8625 55.8237 15.1316 51.0859 15.9169 46.5461C21.1271 46.9563 28.6373 48.246 37.0173 51.7886C36.8985 52.2584 36.7539 52.7213 36.5604 53.1675ZM11.1849 43.649C8.18956 43.6776 5.15652 41.4972 3.62426 38.0988C2.40419 35.3911 2.41552 32.1992 3.65548 29.5605C5.17172 26.3315 8.09258 24.2062 11.2785 24.0136L11.8737 23.9784C18.6103 23.5802 31.7112 22.8039 46.5057 14.189C44.1896 19.1357 42.769 26.0544 42.769 33.833C42.769 41.6167 44.1917 48.5387 46.5104 53.4858C31.1709 44.5583 17.0364 43.5791 11.1849 43.649ZM53.3458 33.833C53.3458 38.0794 50.1757 41.5907 46.0794 42.1467C45.7063 39.5975 45.489 36.8206 45.489 33.833C45.489 30.8451 45.7064 28.0679 46.0796 25.5185C50.176 26.0748 53.3458 29.5865 53.3458 33.833ZM55.3841 58.5418C54.5884 58.5418 53.7847 58.2427 52.9953 57.7156L52.9971 57.7129C52.8584 57.6122 52.7206 57.5269 52.582 57.4275C50.096 55.4759 47.8229 51.0204 46.5509 44.8235C51.9228 44.0418 56.0662 39.4183 56.0662 33.8331C56.0662 28.2474 51.9227 23.6239 46.551 22.842C47.8226 16.6475 50.0945 12.1932 52.5794 10.2405C52.7193 10.1403 52.8572 10.0544 52.9973 9.95259L52.9955 9.9501C53.7847 9.42295 54.5885 9.12374 55.3842 9.12374C60.1634 9.12374 65.28 19.0527 65.28 33.8331C65.28 48.6136 60.1632 58.5418 55.3841 58.5418Z" fill="#01AA85" stroke="#01AA85" stroke-width="0.1"/>
</g>
<defs>
<clipPath id="clip0_1_9260">
<rect width="68" height="68" fill="white"/>
</clipPath>
</defs>
</svg>
