<svg width="24" height="30" viewBox="0 0 24 30" fill="none" xmlns="http://www.w3.org/2000/svg">
<g clip-path="url(#clip0_1_11428)">
<path d="M4 0C1.79375 0 0 1.68164 0 3.75V26.25C0 28.3184 1.79375 30 4 30H20C22.2062 30 24 28.3184 24 26.25V9.375H16C14.8938 9.375 14 8.53711 14 7.5V0H4ZM16 0V7.5H24L16 0ZM4 13.125H5.5C7.43125 13.125 9 14.5957 9 16.4062C9 18.2168 7.43125 19.6875 5.5 19.6875H5V21.5625C5 22.0781 4.55 22.5 4 22.5C3.45 22.5 3 22.0781 3 21.5625V14.0625C3 13.5469 3.45 13.125 4 13.125ZM5.5 17.8125C6.33125 17.8125 7 17.1855 7 16.4062C7 15.627 6.33125 15 5.5 15H5V17.8125H5.5ZM10 14.0625C10 13.5469 10.45 13.125 11 13.125H12.5C14.1562 13.125 15.5 14.3848 15.5 15.9375V19.6875C15.5 21.2402 14.1562 22.5 12.5 22.5H11C10.45 22.5 10 22.0781 10 21.5625V14.0625ZM12 20.625H12.5C13.05 20.625 13.5 20.2031 13.5 19.6875V15.9375C13.5 15.4219 13.05 15 12.5 15H12V20.625ZM18 13.125H21C21.55 13.125 22 13.5469 22 14.0625C22 14.5781 21.55 15 21 15H19V16.875H21C21.55 16.875 22 17.2969 22 17.8125C22 18.3281 21.55 18.75 21 18.75H19V21.5625C19 22.0781 18.55 22.5 18 22.5C17.45 22.5 17 22.0781 17 21.5625V14.0625C17 13.5469 17.45 13.125 18 13.125Z" fill="#EE595C"/>
</g>
<defs>
<clipPath id="clip0_1_11428">
<rect width="24" height="30" fill="white"/>
</clipPath>
</defs>
</svg>
