<svg width="36" height="36" viewBox="0 0 36 36" fill="none" xmlns="http://www.w3.org/2000/svg">
<path d="M29.6616 25.406C29.6616 25.8272 29.568 26.2601 29.3691 26.6813C29.1702 27.1025 28.9128 27.5003 28.5735 27.8747C28.0002 28.5065 27.3684 28.9628 26.6547 29.2553C25.9527 29.5478 25.1922 29.6999 24.3732 29.6999C23.1798 29.6999 21.9046 29.4191 20.5591 28.8458C19.2136 28.2725 17.8681 27.5003 16.5343 26.5292C15.1888 25.5464 13.9135 24.4583 12.6967 23.2532C11.4916 22.0364 10.4035 20.7611 9.43245 19.4273C8.47306 18.0936 7.70086 16.7598 7.13927 15.4377C6.57767 14.1039 6.29688 12.8286 6.29688 11.6118C6.29688 10.8162 6.43727 10.0557 6.71807 9.35372C6.99887 8.64003 7.44347 7.98484 8.06356 7.39984C8.81236 6.66275 9.63135 6.30005 10.4971 6.30005C10.8247 6.30005 11.1523 6.37025 11.4448 6.51065C11.749 6.65105 12.0181 6.86164 12.2287 7.16584L14.9431 10.9917C15.1537 11.2842 15.3058 11.5533 15.4111 11.8107C15.5164 12.0564 15.5749 12.3021 15.5749 12.5244C15.5749 12.8052 15.493 13.086 15.3292 13.3551C15.1771 13.6242 14.9548 13.905 14.674 14.1858L13.7848 15.1101C13.6561 15.2388 13.5976 15.3909 13.5976 15.5781C13.5976 15.6717 13.6093 15.7536 13.6327 15.8472C13.6678 15.9408 13.7029 16.011 13.7263 16.0812C13.9369 16.4673 14.2996 16.9704 14.8144 17.5788C15.3409 18.1872 15.9025 18.8073 16.5109 19.4273C17.1427 20.0474 17.7511 20.6207 18.3712 21.1472C18.9796 21.662 19.4827 22.013 19.8805 22.2236C19.939 22.247 20.0092 22.2821 20.0911 22.3172C20.1847 22.3523 20.2783 22.364 20.3836 22.364C20.5825 22.364 20.7346 22.2938 20.8633 22.1651L21.7525 21.2876C22.045 20.9951 22.3257 20.7728 22.5948 20.6324C22.8639 20.4686 23.133 20.3867 23.4255 20.3867C23.6478 20.3867 23.8818 20.4335 24.1392 20.5388C24.3966 20.6441 24.6657 20.7962 24.9582 20.9951L28.8309 23.7446C29.1351 23.9552 29.3457 24.2009 29.4744 24.4934C29.5914 24.7859 29.6616 25.0784 29.6616 25.406Z" fill="white"/>
</svg>
