<svg width="16" height="16" viewBox="0 0 16 16" fill="none" xmlns="http://www.w3.org/2000/svg">
<g clip-path="url(#clip0_1_16284)">
<path d="M8.09767 5.01296C8.11976 5.00324 8.14394 4.99922 8.16799 5.00128C8.19203 5.00334 8.21518 5.01142 8.23529 5.02476C8.2554 5.0381 8.27184 5.05628 8.28309 5.07764C8.29434 5.09899 8.30004 5.12283 8.29967 5.14696V6.29996C8.29967 6.43257 8.35235 6.55974 8.44612 6.65351C8.53988 6.74728 8.66706 6.79996 8.79967 6.79996C9.46667 6.79996 10.8127 6.80496 12.0997 7.62196C13.0837 8.24596 14.0897 9.38196 14.6947 11.498C13.6747 10.515 12.5097 9.98196 11.4897 9.69896C10.8627 9.5258 10.2184 9.42316 9.56867 9.39296C9.30272 9.38128 9.03633 9.38395 8.77067 9.40096H8.75767L8.75267 9.40196H8.75167L8.79967 9.89996L8.74967 9.40196C8.62625 9.41436 8.51185 9.4722 8.42869 9.56423C8.34553 9.65626 8.29954 9.77592 8.29967 9.89996V11.053C8.29967 11.161 8.18967 11.229 8.09767 11.187L4.11367 8.25396C4.10015 8.24393 4.08613 8.23458 4.07167 8.25596C4.04992 8.21289 4.03193 8.19442 4.01944 8.17234C4.00695 8.15026 4.00039 8.12533 4.00039 8.09996C4.00039 8.07459 4.00695 8.04965 4.01944 8.02758C4.03193 8.0055 4.04992 7.98703 4.07167 7.97396C4.08613 7.96534 4.10015 7.956 4.11367 7.94596L8.09767 5.01296ZM9.29967 10.386C9.36767 10.386 9.44267 10.389 9.52267 10.392C9.95667 10.412 10.5567 10.478 11.2227 10.663C12.5487 11.031 14.1187 11.865 15.1627 13.743C15.2191 13.8443 15.3091 13.9229 15.4171 13.9652C15.5252 14.0076 15.6446 14.011 15.7549 13.9749C15.8651 13.9389 15.9595 13.8656 16.0216 13.7676C16.0838 13.6696 16.11 13.5531 16.0957 13.438C15.6317 9.72796 14.2097 7.77596 12.6357 6.77796C11.3907 5.98796 10.1087 5.83596 9.29967 5.80696V5.14696C9.29976 4.94103 9.24427 4.73889 9.13904 4.56187C9.03381 4.38486 8.88275 4.23953 8.7018 4.14122C8.52085 4.04291 8.31672 3.99527 8.11094 4.00332C7.90517 4.01137 7.70539 4.07481 7.53267 4.18696L3.53867 7.12696C3.37355 7.23003 3.23737 7.37342 3.14297 7.54364C3.04856 7.71386 2.99902 7.90531 2.99902 8.09996C2.99902 8.29461 3.04856 8.48605 3.14297 8.65627C3.23737 8.82649 3.37355 8.96989 3.53867 9.07296L7.53267 12.013C7.70539 12.1251 7.90517 12.1886 8.11094 12.1966C8.31672 12.2047 8.52085 12.157 8.7018 12.0587C8.88275 11.9604 9.03381 11.8151 9.13904 11.638C9.24427 11.461 9.29976 11.2589 9.29967 11.053V10.386Z" fill="#2C2C2C"/>
<path d="M5.23165 4.29273C5.19269 4.23974 5.14367 4.19496 5.08739 4.16094C5.0311 4.12693 4.96866 4.10435 4.90364 4.0945C4.83861 4.08466 4.77229 4.08773 4.70845 4.10356C4.64462 4.11939 4.58454 4.14765 4.53165 4.18673L0.539645 7.12673C0.374525 7.2298 0.238351 7.3732 0.143943 7.54342C0.0495357 7.71364 0 7.90508 0 8.09973C0 8.29438 0.0495357 8.48583 0.143943 8.65605C0.238351 8.82627 0.374525 8.96966 0.539645 9.07273L4.53365 12.0127C4.5864 12.0531 4.64667 12.0825 4.71093 12.0993C4.77519 12.1161 4.84216 12.12 4.90791 12.1106C4.97367 12.1012 5.0369 12.0789 5.09392 12.0448C5.15093 12.0107 5.20059 11.9656 5.23998 11.9121C5.27937 11.8587 5.30772 11.7979 5.32336 11.7333C5.339 11.6688 5.34162 11.6017 5.33107 11.5362C5.32051 11.4706 5.297 11.4078 5.2619 11.3514C5.22681 11.295 5.18083 11.2462 5.12665 11.2077L1.11365 8.25373C1.10012 8.2437 1.0861 8.23436 1.07165 8.25573C1.0499 8.21266 1.03191 8.19419 1.01942 8.17211C1.00693 8.15003 1.00036 8.1251 1.00036 8.09973C1.00036 8.07436 1.00693 8.04943 1.01942 8.02735C1.03191 8.00527 1.0499 7.9868 1.07165 7.97373C1.08611 7.96511 1.10013 7.95577 1.11365 7.94573L5.12565 4.99173C5.23238 4.91308 5.3035 4.79526 5.32338 4.66418C5.34326 4.5331 5.31026 4.39949 5.23165 4.29273Z" fill="#2C2C2C" stroke="white" stroke-width="0.3"/>
</g>
<defs>
<clipPath id="clip0_1_16284">
<rect width="16" height="16" fill="white"/>
</clipPath>
</defs>
</svg>
