<svg width="24" height="24" viewBox="0 0 24 24" fill="none" xmlns="http://www.w3.org/2000/svg">
<path d="M10.6064 20.9217L10.6056 20.9212L5.45772 17.944C4.37413 17.2141 3.992 16.9025 3.80413 16.5755C3.62809 16.2692 3.58008 15.8725 3.58008 14.7104V9.28043C3.58008 8.11783 3.62802 7.72283 3.80031 7.42076C3.98334 7.09986 4.35441 6.79678 5.41807 6.07669L10.6143 3.0804C10.6144 3.08035 10.6145 3.0803 10.6146 3.08025C10.6146 3.08022 10.6147 3.08018 10.6147 3.08015C10.9721 2.87455 11.4711 2.75293 12.0051 2.75293C12.5391 2.75293 13.0381 2.87456 13.3954 3.08016C13.3956 3.08024 13.3957 3.08032 13.3959 3.0804L18.5424 6.05685C19.6276 6.78778 20.0091 7.09664 20.1968 7.4217C20.3719 7.72488 20.4201 8.11786 20.4201 9.28043V14.7204C20.4201 15.883 20.3721 16.278 20.1998 16.5801C20.0168 16.901 19.6457 17.2041 18.5821 17.9242L13.3854 20.9207L13.3854 20.9207L13.3781 20.925C13.0322 21.1297 12.5331 21.2504 12.0001 21.2504C11.4688 21.2504 10.9662 21.1304 10.6064 20.9217ZM8.00008 12.0004C8.00008 14.2046 9.79586 16.0004 12.0001 16.0004C14.2043 16.0004 16.0001 14.2046 16.0001 12.0004C16.0001 9.79622 14.2043 8.00043 12.0001 8.00043C9.79586 8.00043 8.00008 9.79622 8.00008 12.0004Z" stroke="#7F8384" stroke-width="1.5"/>
</svg>
