<svg width="14" height="14" viewBox="0 0 14 14" fill="none" xmlns="http://www.w3.org/2000/svg">
<path d="M7.80878 3.00468L8.63033 4.65916C8.74236 4.88477 9.0411 5.11038 9.29006 5.14798L10.7776 5.39866C11.7298 5.5616 11.9539 6.25097 11.2692 6.94033L10.1116 8.11255C9.91867 8.30653 9.80664 8.68882 9.86888 8.96456L10.1987 10.4122C10.4601 11.5528 9.85643 11.9978 8.85439 11.4024L7.46024 10.5689C7.20506 10.4185 6.79429 10.4185 6.53911 10.5689L5.13874 11.3961C4.1367 11.9915 3.53298 11.5466 3.79438 10.406L4.12425 8.95829C4.18649 8.68882 4.07446 8.30653 3.88152 8.10599L2.7301 6.9466C2.04548 6.25723 2.26954 5.5616 3.22179 5.40493L4.70929 5.15425C4.95825 5.11038 5.25699 4.89104 5.36902 4.66542L6.19057 3.01095C6.63247 2.1085 7.36688 2.1085 7.80878 3.00468Z" fill="#7F8384"/>
</svg>
