<svg width="30" height="30" viewBox="0 0 30 30" fill="none" xmlns="http://www.w3.org/2000/svg">
<path d="M27.0061 2.8125H9.09891C8.95215 2.81238 8.80681 2.84116 8.67119 2.89721C8.53556 2.95325 8.4123 3.03546 8.30844 3.13915C8.20458 3.24283 8.12217 3.36595 8.06589 3.50149C8.00962 3.63702 7.98059 3.78231 7.98047 3.92906V8.90625L18.3577 11.9531L28.1255 8.90625V3.92906C28.1253 3.78223 28.0963 3.63687 28.04 3.50127C27.9836 3.36567 27.9011 3.24251 27.7972 3.13881C27.6932 3.03512 27.5698 2.95293 27.4341 2.89694C27.2984 2.84095 27.1529 2.81226 27.0061 2.8125Z" fill="#41A5EE"/>
<path d="M28.1255 8.90625H7.98047V15L18.3577 16.8281L28.1255 15V8.90625Z" fill="#2B7CD3"/>
<path d="M7.98047 15V21.0937L17.7473 22.3125L28.1255 21.0937V15H7.98047Z" fill="#185ABD"/>
<path d="M9.09891 27.1875H27.0052C27.1521 27.1879 27.2976 27.1593 27.4335 27.1033C27.5693 27.0474 27.6928 26.9652 27.7968 26.8615C27.9009 26.7578 27.9835 26.6346 28.0399 26.4989C28.0963 26.3633 28.1253 26.2178 28.1255 26.0709V21.0938H7.98047V26.0709C7.98059 26.2177 8.00962 26.363 8.06589 26.4985C8.12217 26.6341 8.20458 26.7572 8.30844 26.8609C8.4123 26.9645 8.53556 27.0467 8.67119 27.1028C8.80681 27.1588 8.95215 27.1876 9.09891 27.1875Z" fill="#103F91"/>
<path opacity="0.1" d="M15.4073 7.6875H7.98047V22.9219H15.4073C15.7033 22.9204 15.9867 22.8024 16.1962 22.5934C16.4058 22.3844 16.5245 22.1012 16.5267 21.8053V8.80406C16.5245 8.50813 16.4058 8.22499 16.1962 8.01599C15.9867 7.80699 15.7033 7.68897 15.4073 7.6875Z" fill="black"/>
<path opacity="0.2" d="M14.797 8.29688H7.98047V23.5312H14.797C15.093 23.5298 15.3764 23.4118 15.5859 23.2028C15.7955 22.9938 15.9142 22.7106 15.9164 22.4147V9.41344C15.9142 9.11751 15.7955 8.83436 15.5859 8.62537C15.3764 8.41637 15.093 8.29835 14.797 8.29688Z" fill="black"/>
<path opacity="0.2" d="M14.797 8.29688H7.98047V22.3125H14.797C15.093 22.311 15.3764 22.193 15.5859 21.984C15.7955 21.775 15.9142 21.4919 15.9164 21.1959V9.41344C15.9142 9.11751 15.7955 8.83436 15.5859 8.62537C15.3764 8.41637 15.093 8.29835 14.797 8.29688Z" fill="black"/>
<path opacity="0.2" d="M14.1867 8.29688H7.98047V22.3125H14.1867C14.4827 22.311 14.7661 22.193 14.9756 21.984C15.1851 21.775 15.3039 21.4919 15.3061 21.1959V9.41344C15.3039 9.11751 15.1851 8.83436 14.9756 8.62537C14.7661 8.41637 14.4827 8.29835 14.1867 8.29688Z" fill="black"/>
<path d="M2.99438 8.29688H14.1863C14.4827 8.29663 14.7672 8.41409 14.977 8.62346C15.1869 8.83283 15.3051 9.11697 15.3056 9.41344V20.5866C15.3051 20.883 15.1869 21.1672 14.977 21.3765C14.7672 21.5859 14.4827 21.7034 14.1863 21.7031H2.99438C2.84754 21.7034 2.7021 21.6747 2.56637 21.6187C2.43063 21.5627 2.30726 21.4805 2.2033 21.3768C2.09935 21.2731 2.01684 21.15 1.96051 21.0144C1.90418 20.8788 1.87512 20.7334 1.875 20.5866V9.41344C1.87512 9.26661 1.90418 9.12124 1.96051 8.98564C2.01684 8.85005 2.09935 8.72688 2.2033 8.62319C2.30726 8.51949 2.43063 8.4373 2.56637 8.38131C2.7021 8.32532 2.84754 8.29663 2.99438 8.29688Z" fill="url(#paint0_linear_1_11476)"/>
<path d="M6.46836 16.8638C6.48992 17.0363 6.50492 17.1863 6.51148 17.3147H6.53773C6.54711 17.1929 6.56773 17.0457 6.59867 16.8741C6.62961 16.7025 6.6568 16.5572 6.68211 16.4382L7.85867 11.3691H9.38117L10.5999 16.3622C10.6709 16.6711 10.7216 16.9843 10.7518 17.2997H10.7724C10.7948 16.9926 10.8371 16.6873 10.899 16.3857L11.873 11.3625H13.2577L11.5477 18.6263H9.92867L8.76898 13.8207C8.73523 13.6819 8.69711 13.5013 8.65461 13.2788C8.61211 13.0563 8.58586 12.8938 8.57586 12.7913H8.55617C8.54305 12.9094 8.5168 13.0847 8.47742 13.3172C8.43805 13.5507 8.40711 13.7222 8.38367 13.8347L7.29336 18.6291H5.64711L3.92773 11.3691H5.33398L6.3943 16.4485C6.42594 16.5856 6.45066 16.7242 6.46836 16.8638Z" fill="white"/>
<defs>
<linearGradient id="paint0_linear_1_11476" x1="4.21313" y1="7.41938" x2="12.9675" y2="22.5806" gradientUnits="userSpaceOnUse">
<stop stop-color="#2368C4"/>
<stop offset="0.5" stop-color="#1A5DBE"/>
<stop offset="1" stop-color="#1146AC"/>
</linearGradient>
</defs>
</svg>
