<svg width="16" height="16" viewBox="0 0 16 16" fill="none" xmlns="http://www.w3.org/2000/svg">
<path d="M13.6665 6.7935H11.7398C10.1598 6.7935 8.87317 5.50683 8.87317 3.92683V2.00016C8.87317 1.6335 8.57317 1.3335 8.2065 1.3335H5.37984C3.3265 1.3335 1.6665 2.66683 1.6665 5.04683V10.9535C1.6665 13.3335 3.3265 14.6668 5.37984 14.6668H10.6198C12.6732 14.6668 14.3332 13.3335 14.3332 10.9535V7.46016C14.3332 7.0935 14.0332 6.7935 13.6665 6.7935Z" fill="#7F8384"/>
<path d="M10.5333 1.47317C10.26 1.19983 9.78662 1.3865 9.78662 1.7665V4.09317C9.78662 5.0665 10.6133 5.87317 11.62 5.87317C12.2533 5.87983 13.1333 5.87983 13.8866 5.87983C14.2666 5.87983 14.4666 5.43317 14.2 5.1665C13.24 4.19983 11.52 2.45983 10.5333 1.47317Z" fill="#7F8384"/>
</svg>
