<svg width="16" height="16" viewBox="0 0 16 16" fill="none" xmlns="http://www.w3.org/2000/svg">
<path d="M1.71954 12.6735L1.70621 12.6868C1.52621 12.2935 1.41288 11.8468 1.36621 11.3535C1.41288 11.8402 1.53954 12.2802 1.71954 12.6735Z" fill="#7F8384"/>
<path d="M5.99975 6.91992C6.87604 6.91992 7.58642 6.20954 7.58642 5.33325C7.58642 4.45696 6.87604 3.74658 5.99975 3.74658C5.12346 3.74658 4.41309 4.45696 4.41309 5.33325C4.41309 6.20954 5.12346 6.91992 5.99975 6.91992Z" fill="#7F8384"/>
<path d="M10.793 1.33301H5.20634C2.77967 1.33301 1.33301 2.77967 1.33301 5.20634V10.793C1.33301 11.5197 1.45967 12.153 1.70634 12.6863C2.27967 13.953 3.50634 14.6663 5.20634 14.6663H10.793C13.2197 14.6663 14.6663 13.2197 14.6663 10.793V9.26634V5.20634C14.6663 2.77967 13.2197 1.33301 10.793 1.33301ZM13.5797 8.33301C13.0597 7.88634 12.2197 7.88634 11.6997 8.33301L8.92634 10.713C8.40634 11.1597 7.56634 11.1597 7.04634 10.713L6.81967 10.5263C6.34634 10.113 5.59301 10.073 5.05967 10.433L2.56634 12.1063C2.41967 11.733 2.33301 11.2997 2.33301 10.793V5.20634C2.33301 3.32634 3.32634 2.33301 5.20634 2.33301H10.793C12.673 2.33301 13.6663 3.32634 13.6663 5.20634V8.40634L13.5797 8.33301Z" fill="#7F8384"/>
</svg>
