<svg width="16" height="16" viewBox="0 0 16 16" fill="none" xmlns="http://www.w3.org/2000/svg">
<path d="M4.8331 8.00016C4.8331 7.72683 5.05977 7.50016 5.3331 7.50016H7.3331V5.00016C7.3331 4.6335 7.0331 4.3335 6.66643 4.3335H5.17977C3.07977 4.3335 1.2531 6.0535 1.3331 8.14683C1.3731 9.10016 1.7731 9.96016 2.40643 10.5935C3.0731 11.2535 3.98643 11.6668 4.99977 11.6668H6.66643C7.0331 11.6668 7.3331 11.3668 7.3331 11.0002V8.50016H5.3331C5.05977 8.50016 4.8331 8.2735 4.8331 8.00016Z" fill="#7F8384"/>
<path d="M13.5932 5.40683C12.9265 4.74683 12.0132 4.3335 10.9998 4.3335H9.33317C8.9665 4.3335 8.6665 4.6335 8.6665 5.00016V7.50016H10.6665C10.9398 7.50016 11.1665 7.72683 11.1665 8.00016C11.1665 8.2735 10.9398 8.50016 10.6665 8.50016H8.6665V11.0002C8.6665 11.3668 8.9665 11.6668 9.33317 11.6668H10.8198C12.9198 11.6668 14.7465 9.94683 14.6598 7.8535C14.6265 6.90016 14.2198 6.04016 13.5932 5.40683Z" fill="#7F8384"/>
<path d="M8.66683 7.5H7.3335V8.5H8.66683V7.5Z" fill="#7F8384"/>
</svg>
