<svg width="16" height="16" viewBox="0 0 16 16" fill="none" xmlns="http://www.w3.org/2000/svg">
<g clip-path="url(#clip0_220_1382)">
<path d="M13.0315 1.50665C12.7028 1.50665 12.3889 1.62107 12.0955 1.82652L12.0936 1.82389C8.15675 4.68378 4.50913 4.89941 2.7561 5.00303L2.61529 5.01148C1.63172 5.0707 0.737086 5.71142 0.280634 6.68325C-0.0894229 7.47115 -0.0937785 8.42221 0.269255 9.22762C0.740986 10.2741 1.64407 10.9092 2.63733 10.9105C2.77255 10.9094 2.93289 10.9122 3.10483 10.9175C2.91143 12.25 3.70043 13.615 5.06761 14.2073C5.50674 14.3976 5.96975 14.4934 6.42855 14.4934C6.78641 14.4934 7.14175 14.4351 7.48118 14.3181C8.26612 14.0474 8.8729 13.4956 9.18969 12.7646C9.23425 12.6618 9.27004 12.5558 9.30173 12.4487C10.2079 12.8739 11.1479 13.4104 12.0936 14.0975L12.0956 14.0948C12.3889 14.3002 12.7028 14.4147 13.0316 14.4147C14.6962 14.4147 16.0001 11.5798 16.0001 7.96075C16.0001 4.34171 14.6961 1.50665 13.0315 1.50665ZM8.60244 12.51C8.35788 13.0743 7.88563 13.5015 7.27245 13.713C6.64892 13.9275 5.95636 13.8947 5.32205 13.62C4.20294 13.135 3.56037 12.0202 3.74516 10.952C4.97107 11.0485 6.73818 11.352 8.70996 12.1855C8.68201 12.2961 8.64798 12.405 8.60244 12.51ZM2.63174 10.2703C1.92696 10.2771 1.2133 9.76404 0.852767 8.96441C0.565693 8.3273 0.568358 7.57626 0.860113 6.95541C1.21688 6.19563 1.90414 5.69556 2.65377 5.65025L2.7938 5.64196C4.37889 5.54828 7.46146 5.36561 10.9425 3.33857C10.3976 4.5025 10.0633 6.13043 10.0633 7.96069C10.0633 9.79215 10.3981 11.4209 10.9436 12.5849C7.33433 10.4843 4.00857 10.2539 2.63174 10.2703ZM12.552 7.96069C12.552 8.95986 11.8061 9.78604 10.8422 9.91687C10.7544 9.31704 10.7033 8.66365 10.7033 7.96069C10.7033 7.25766 10.7545 6.6042 10.8422 6.00434C11.8061 6.13524 12.552 6.96152 12.552 7.96069ZM13.0315 13.7745C12.8443 13.7745 12.6552 13.7042 12.4695 13.5801L12.4699 13.5795C12.4373 13.5558 12.4048 13.5357 12.3722 13.5123C11.7873 13.0531 11.2524 12.0048 10.9532 10.5467C12.2171 10.3628 13.1921 9.27488 13.1921 7.96072C13.1921 6.64643 12.2171 5.55855 10.9532 5.37458C11.2524 3.91704 11.7869 2.86899 12.3716 2.40951C12.4045 2.38595 12.437 2.36573 12.4699 2.34177L12.4695 2.34119C12.6552 2.21715 12.8444 2.14675 13.0316 2.14675C14.1561 2.14675 15.36 4.48297 15.36 7.96072C15.36 11.4385 14.1561 13.7745 13.0315 13.7745Z" fill="#2C2C2C" stroke="#2C2C2C" stroke-width="0.1"/>
</g>
<defs>
<clipPath id="clip0_220_1382">
<rect width="16" height="16" fill="white"/>
</clipPath>
</defs>
</svg>
