<svg width="16" height="16" viewBox="0 0 16 16" fill="none" xmlns="http://www.w3.org/2000/svg">
<path d="M13.3333 4.50016C14.3459 4.50016 15.1667 3.67935 15.1667 2.66683C15.1667 1.65431 14.3459 0.833496 13.3333 0.833496C12.3208 0.833496 11.5 1.65431 11.5 2.66683C11.5 3.67935 12.3208 4.50016 13.3333 4.50016Z" fill="#7F8384"/>
<path d="M12.6935 5.4335C11.6468 5.20683 10.7935 4.3535 10.5668 3.30683C10.4802 2.90016 10.4735 2.50683 10.5468 2.1335C10.6335 1.72016 10.3268 1.3335 9.90016 1.3335H4.66683C2.82683 1.3335 1.3335 2.82683 1.3335 4.66683V9.30016C1.3335 11.1402 2.82683 12.6335 4.66683 12.6335H5.66683C5.8535 12.6335 6.0935 12.7535 6.20016 12.9002L7.20016 14.2268C7.64016 14.8135 8.36016 14.8135 8.80016 14.2268L9.80016 12.9002C9.92683 12.7335 10.1202 12.6335 10.3335 12.6335H11.3402C13.1802 12.6335 14.6668 11.1468 14.6668 9.30683V6.10016C14.6668 5.68016 14.2802 5.3735 13.8668 5.4535C13.4935 5.52016 13.1002 5.52016 12.6935 5.4335ZM5.3335 8.00016C4.96016 8.00016 4.66683 7.70016 4.66683 7.3335C4.66683 6.96683 4.96016 6.66683 5.3335 6.66683C5.70016 6.66683 6.00016 6.96683 6.00016 7.3335C6.00016 7.70016 5.70683 8.00016 5.3335 8.00016ZM8.00016 8.00016C7.62683 8.00016 7.3335 7.70016 7.3335 7.3335C7.3335 6.96683 7.62683 6.66683 8.00016 6.66683C8.36683 6.66683 8.66683 6.96683 8.66683 7.3335C8.66683 7.70016 8.3735 8.00016 8.00016 8.00016ZM10.6668 8.00016C10.2935 8.00016 10.0002 7.70016 10.0002 7.3335C10.0002 6.96683 10.2935 6.66683 10.6668 6.66683C11.0335 6.66683 11.3335 6.96683 11.3335 7.3335C11.3335 7.70016 11.0402 8.00016 10.6668 8.00016Z" fill="#7F8384"/>
</svg>
