<svg width="16" height="16" viewBox="0 0 16 16" fill="none" xmlns="http://www.w3.org/2000/svg">
<path d="M12.0002 11.1669C11.8935 11.1669 11.7935 11.1335 11.7002 11.0669C11.4802 10.9002 11.4335 10.5869 11.6002 10.3669C12.4402 9.24688 12.6202 7.76021 12.0802 6.47354C11.9735 6.22021 12.0935 5.92688 12.3468 5.82021C12.6002 5.71354 12.8935 5.83354 13.0002 6.08688C13.6802 7.70021 13.4468 9.57354 12.4002 10.9735C12.3002 11.1002 12.1535 11.1669 12.0002 11.1669Z" fill="#7F8384"/>
<path d="M13.2199 12.8335C13.1132 12.8335 13.0132 12.8001 12.9199 12.7335C12.6999 12.5668 12.6532 12.2535 12.8199 12.0335C14.2466 10.1335 14.5599 7.5868 13.6399 5.39347C13.5332 5.14013 13.6532 4.8468 13.9066 4.74013C14.1599 4.63347 14.4532 4.75347 14.5599 5.0068C15.6199 7.5268 15.2599 10.4468 13.6199 12.6335C13.5266 12.7668 13.3732 12.8335 13.2199 12.8335Z" fill="#7F8384"/>
<path d="M9.35999 8.63986C9.77999 8.21986 10.5 8.51986 10.5 9.11319V11.0665C10.5 12.2132 10.0867 13.0732 9.34665 13.4865C9.04665 13.6532 8.71332 13.7332 8.36665 13.7332C7.83332 13.7332 7.25999 13.5532 6.67332 13.1865L6.24665 12.9199C5.88665 12.6932 5.82665 12.1865 6.12665 11.8865L9.35999 8.63986Z" fill="#7F8384"/>
<path d="M14.513 1.48691C14.313 1.28691 13.9863 1.28691 13.7863 1.48691L10.4863 4.78691C10.4463 3.72025 10.0463 2.92025 9.33967 2.52691C8.59301 2.11358 7.63967 2.22025 6.66634 2.82691L4.72634 4.04025C4.59301 4.12025 4.43967 4.16691 4.28634 4.16691H3.66634H3.33301C1.71967 4.16691 0.833008 5.05358 0.833008 6.66691V9.33358C0.833008 10.9469 1.71967 11.8336 3.33301 11.8336H3.43967L1.47967 13.7936C1.27967 13.9936 1.27967 14.3202 1.47967 14.5202C1.58634 14.6136 1.71301 14.6669 1.84634 14.6669C1.97967 14.6669 2.10634 14.6136 2.20634 14.5136L14.513 2.20691C14.7197 2.00691 14.7197 1.68691 14.513 1.48691Z" fill="#7F8384"/>
</svg>
