<svg width="16" height="16" viewBox="0 0 16 16" fill="none" xmlns="http://www.w3.org/2000/svg">
<path d="M9.82825 0.72168C9.89395 0.721563 9.95904 0.734397 10.0198 0.759449C10.0805 0.784501 10.1357 0.821279 10.1822 0.86768L15.1322 5.81768C15.226 5.91144 15.2786 6.0386 15.2786 6.17118C15.2786 6.30376 15.226 6.43092 15.1322 6.52468C14.6522 7.00468 14.0602 7.11268 13.6292 7.11268C13.4522 7.11268 13.2942 7.09468 13.1692 7.07368L10.0352 10.2077C10.1178 10.5401 10.1713 10.879 10.1952 11.2207C10.2412 11.9227 10.1632 12.9077 9.47525 13.5957C9.38148 13.6894 9.25433 13.7421 9.12175 13.7421C8.98917 13.7421 8.86201 13.6894 8.76825 13.5957L5.93925 10.7677L2.75725 13.9497C2.56255 14.1447 1.53825 14.8517 1.34325 14.6567C1.14825 14.4617 1.85525 13.4367 2.05025 13.2427L5.23255 10.0607L2.40425 7.23168C2.31051 7.13792 2.25786 7.01076 2.25786 6.87818C2.25786 6.7456 2.31051 6.61844 2.40425 6.52468C3.09255 5.83668 4.07725 5.75768 4.77925 5.80468C5.12091 5.82862 5.45984 5.88215 5.79255 5.96468L8.92625 2.83168C8.90009 2.6794 8.88671 2.52519 8.88625 2.37068C8.88625 1.94068 8.99425 1.34868 9.47525 0.86768C9.56895 0.774212 9.6959 0.721709 9.82825 0.72168Z" fill="#7F8384"/>
</svg>
