<svg width="26" height="26" viewBox="0 0 26 26" fill="none" xmlns="http://www.w3.org/2000/svg">
<path d="M12.9996 2.60156C15.7579 2.60156 18.4031 3.69727 20.3535 5.64765C22.3039 7.59803 23.3996 10.2433 23.3996 13.0016C23.3996 15.7598 22.3039 18.4051 20.3535 20.3555C18.4031 22.3059 15.7579 23.4016 12.9996 23.4016C10.2414 23.4016 7.59608 22.3059 5.6457 20.3555C3.69532 18.4051 2.59961 15.7598 2.59961 13.0016C2.59961 10.2433 3.69532 7.59803 5.6457 5.64765C7.59608 3.69727 10.2414 2.60156 12.9996 2.60156ZM12.9996 3.90156C11.8046 3.90156 10.6213 4.13694 9.51719 4.59426C8.41313 5.05158 7.40995 5.72188 6.56494 6.56689C5.71992 7.4119 5.04962 8.41508 4.59231 9.51914C4.13499 10.6232 3.89961 11.8065 3.89961 13.0016C3.89961 14.1966 4.13499 15.3799 4.59231 16.484C5.04962 17.588 5.71992 18.5912 6.56494 19.4362C7.40995 20.2812 8.41313 20.9515 9.51719 21.4089C10.6213 21.8662 11.8046 22.1016 12.9996 22.1016C15.4131 22.1016 17.7277 21.1428 19.4343 19.4362C21.1409 17.7297 22.0996 15.415 22.0996 13.0016C22.0996 10.5881 21.1409 8.27347 19.4343 6.56689C17.7277 4.86031 15.4131 3.90156 12.9996 3.90156ZM9.30111 16.1567C10.2408 17.1027 11.5071 17.6528 12.8399 17.6939C14.1727 17.735 15.4705 17.264 16.4667 16.3777L16.6981 16.1567C16.8123 16.0406 16.9659 15.9716 17.1286 15.9634C17.2912 15.9552 17.451 16.0083 17.5763 16.1122C17.7017 16.2161 17.7834 16.3633 17.8054 16.5247C17.8275 16.686 17.7881 16.8497 17.6952 16.9835L17.6211 17.0745L17.5912 17.1031C16.9843 17.7061 16.2646 18.1837 15.4732 18.5085C14.6817 18.8334 13.834 18.9991 12.9785 18.9964C12.1229 18.9936 11.2763 18.8223 10.487 18.4923C9.69766 18.1623 8.98106 17.6801 8.37811 17.0732C8.25657 16.9508 8.18864 16.7851 8.18925 16.6126C8.18986 16.4401 8.25896 16.2749 8.38136 16.1534C8.50376 16.0319 8.66942 15.9639 8.84191 15.9646C9.01439 15.9652 9.17957 16.0343 9.30111 16.1567ZM16.2496 9.75156C16.5944 9.75156 16.925 9.88853 17.1688 10.1323C17.4126 10.3761 17.5496 10.7068 17.5496 11.0516C17.5496 11.3963 17.4126 11.727 17.1688 11.9708C16.925 12.2146 16.5944 12.3516 16.2496 12.3516C15.9048 12.3516 15.5742 12.2146 15.3304 11.9708C15.0866 11.727 14.9496 11.3963 14.9496 11.0516C14.9496 10.7068 15.0866 10.3761 15.3304 10.1323C15.5742 9.88853 15.9048 9.75156 16.2496 9.75156ZM9.74961 9.75156C10.0944 9.75156 10.4251 9.88853 10.6688 10.1323C10.9126 10.3761 11.0496 10.7068 11.0496 11.0516C11.0496 11.3963 10.9126 11.727 10.6688 11.9708C10.4251 12.2146 10.0944 12.3516 9.74961 12.3516C9.40483 12.3516 9.07417 12.2146 8.83037 11.9708C8.58657 11.727 8.44961 11.3963 8.44961 11.0516C8.44961 10.7068 8.58657 10.3761 8.83037 10.1323C9.07417 9.88853 9.40483 9.75156 9.74961 9.75156Z" fill="#7F8384"/>
</svg>
