<svg width="16" height="16" viewBox="0 0 16 16" fill="none" xmlns="http://www.w3.org/2000/svg">
<path d="M14.0998 4.11317C13.8265 3.9665 13.2532 3.81317 12.4732 4.35984L11.4932 5.05317C11.4198 2.97984 10.5198 2.1665 8.33317 2.1665H4.33317C2.05317 2.1665 1.1665 3.05317 1.1665 5.33317V10.6665C1.1665 12.1998 1.99984 13.8332 4.33317 13.8332H8.33317C10.5198 13.8332 11.4198 13.0198 11.4932 10.9465L12.4732 11.6398C12.8865 11.9332 13.2465 12.0265 13.5332 12.0265C13.7798 12.0265 13.9732 11.9532 14.0998 11.8865C14.3732 11.7465 14.8332 11.3665 14.8332 10.4132V5.5865C14.8332 4.63317 14.3732 4.25317 14.0998 4.11317ZM7.33317 7.5865C6.6465 7.5865 6.07984 7.0265 6.07984 6.33317C6.07984 5.63984 6.6465 5.07984 7.33317 5.07984C8.01984 5.07984 8.5865 5.63984 8.5865 6.33317C8.5865 7.0265 8.01984 7.5865 7.33317 7.5865Z" fill="#7F8384"/>
</svg>
